<svg xmlns="http://www.w3.org/2000/svg" width="280" height="254">
  <rect width="280" height="254" rx="6" fill="#1b1f23"/>
  <text x="15" y="28" font-family="Segoe UI, Arial, sans-serif" font-size="14" font-weight="bold" fill="#c9d1d9">Top Languages</text>
  <text x="15" y="48" font-family="Segoe UI, Arial, sans-serif" font-size="12" fill="#c9d1d9">C++</text>
  <text x="265" y="48" font-family="Segoe UI, Arial, sans-serif" font-size="12" fill="#8b949e" text-anchor="end">51.4%</text>
  <rect x="15" y="53" width="250" height="10" rx="3" fill="#30363d"/>
  <rect x="15" y="53" width="128" height="10" rx="3" fill="#f34b7d"/>
  <text x="15" y="82" font-family="Segoe UI, Arial, sans-serif" font-size="12" fill="#c9d1d9">C</text>
  <text x="265" y="82" font-family="Segoe UI, Arial, sans-serif" font-size="12" fill="#8b949e" text-anchor="end">19.0%</text>
  <rect x="15" y="87" width="250" height="10" rx="3" fill="#30363d"/>
  <rect x="15" y="87" width="47" height="10" rx="3" fill="#555555"/>
  <text x="15" y="116" font-family="Segoe UI, Arial, sans-serif" font-size="12" fill="#c9d1d9">Go</text>
  <text x="265" y="116" font-family="Segoe UI, Arial, sans-serif" font-size="12" fill="#8b949e" text-anchor="end">11.9%</text>
  <rect x="15" y="121" width="250" height="10" rx="3" fill="#30363d"/>
  <rect x="15" y="121" width="29" height="10" rx="3" fill="#00ADD8"/>
  <text x="15" y="150" font-family="Segoe UI, Arial, sans-serif" font-size="12" fill="#c9d1d9">JavaScript</text>
  <text x="265" y="150" font-family="Segoe UI, Arial, sans-serif" font-size="12" fill="#8b949e" text-anchor="end">5.5%</text>
  <rect x="15" y="155" width="250" height="10" rx="3" fill="#30363d"/>
  <rect x="15" y="155" width="13" height="10" rx="3" fill="#f1e05a"/>
  <text x="15" y="184" font-family="Segoe UI, Arial, sans-serif" font-size="12" fill="#c9d1d9">Shell</text>
  <text x="265" y="184" font-family="Segoe UI, Arial, sans-serif" font-size="12" fill="#8b949e" text-anchor="end">3.8%</text>
  <rect x="15" y="189" width="250" height="10" rx="3" fill="#30363d"/>
  <rect x="15" y="189" width="9" height="10" rx="3" fill="#89e051"/>
  <text x="15" y="218" font-family="Segoe UI, Arial, sans-serif" font-size="12" fill="#c9d1d9">m4</text>
  <text x="265" y="218" font-family="Segoe UI, Arial, sans-serif" font-size="12" fill="#8b949e" text-anchor="end">1.7%</text>
  <rect x="15" y="223" width="250" height="10" rx="3" fill="#30363d"/>
  <rect x="15" y="223" width="4" height="10" rx="3" fill="#8b949e"/>
</svg>