<svg xmlns="http://www.w3.org/2000/svg" width="872" height="272">
  <defs>
    <style>
      .header { font: bold 14px "Segoe UI", Arial, sans-serif; fill: #c9d1d9; }
      .label { font: 13px "Segoe UI", Arial, sans-serif; fill: #8b949e; }
      .value { font: 13px "Segoe UI", Arial, sans-serif; fill: #58a6ff; }
      .lang-name { font: 12px "Segoe UI", Arial, sans-serif; fill: #c9d1d9; }
      .lang-pct { font: 12px "Segoe UI", Arial, sans-serif; fill: #8b949e; }
      .medal-value { font: 13px "Segoe UI", Arial, sans-serif; fill: #8b949e; }
    </style>
  </defs>
  <rect width="872" height="272" rx="8" fill="#0d1117"/>
  <rect x="0" y="0" width="280" height="272" rx="8" fill="#161b22"/>
  <text x="12" y="30" class="header">📊 Profile Stats</text>
  <text x="12" y="58" class="label">⭐ Stars</text>
  <text x="268" y="58" class="value" text-anchor="end">7.7K</text>
  <text x="12" y="82" class="label">🍴 Forks</text>
  <text x="268" y="82" class="value" text-anchor="end">1.4K</text>
  <text x="12" y="106" class="label">📦 Repos</text>
  <text x="268" y="106" class="value" text-anchor="end">75</text>
  <text x="12" y="130" class="label">👥 Followers</text>
  <text x="268" y="130" class="value" text-anchor="end">675</text>
  <text x="12" y="154" class="label">💻 Code Lines</text>
  <text x="268" y="154" class="value" text-anchor="end">6.7M</text>
  <text x="12" y="178" class="label">💬 Comments</text>
  <text x="268" y="178" class="value" text-anchor="end">757.2K</text>
  <text x="12" y="202" class="label">🎂 GitHub Age</text>
  <text x="268" y="202" class="value" text-anchor="end">13 yrs</text>
  <rect x="296" y="0" width="280" height="272" rx="8" fill="#161b22"/>
  <text x="308" y="30" class="header">🏆 Top Repos</text>
  <text x="308" y="58" font-family="Segoe UI, Arial, sans-serif" font-size="13" fill="#FFD700">🥇 pingtunnel</text>
  <text x="564" y="58" class="medal-value" text-anchor="end">⭐ 3708</text>
  <text x="308" y="84" font-family="Segoe UI, Arial, sans-serif" font-size="13" fill="#C0C0C0">🥈 spp</text>
  <text x="564" y="84" class="medal-value" text-anchor="end">⭐ 916</text>
  <text x="308" y="110" font-family="Segoe UI, Arial, sans-serif" font-size="13" fill="#CD7F32">🥉 atmosphere-switch</text>
  <text x="564" y="110" class="medal-value" text-anchor="end">⭐ 506</text>
  <text x="308" y="136" font-family="Segoe UI, Arial, sans-serif" font-size="13" fill="#8b949e">4. majiang_algorithm</text>
  <text x="564" y="136" class="medal-value" text-anchor="end">⭐ 480</text>
  <text x="308" y="162" font-family="Segoe UI, Arial, sans-serif" font-size="13" fill="#8b949e">5. xiaohuangji</text>
  <text x="564" y="162" class="medal-value" text-anchor="end">⭐ 444</text>
  <rect x="592" y="0" width="280" height="272" rx="8" fill="#161b22"/>
  <text x="604" y="30" class="header">💻 Top Languages</text>
  <text x="604" y="57" class="lang-name">C++</text>
  <text x="860" y="57" class="lang-pct" text-anchor="end">50.2%</text>
  <rect x="604" y="62" width="256" height="10" rx="3" fill="#30363d"/>
  <rect x="604" y="62" width="128" height="10" rx="3" fill="#f34b7d"/>
  <text x="604" y="91" class="lang-name">C</text>
  <text x="860" y="91" class="lang-pct" text-anchor="end">20.9%</text>
  <rect x="604" y="96" width="256" height="10" rx="3" fill="#30363d"/>
  <rect x="604" y="96" width="53" height="10" rx="3" fill="#555555"/>
  <text x="604" y="125" class="lang-name">Go</text>
  <text x="860" y="125" class="lang-pct" text-anchor="end">11.6%</text>
  <rect x="604" y="130" width="256" height="10" rx="3" fill="#30363d"/>
  <rect x="604" y="130" width="29" height="10" rx="3" fill="#00ADD8"/>
  <text x="604" y="159" class="lang-name">JavaScript</text>
  <text x="860" y="159" class="lang-pct" text-anchor="end">5.4%</text>
  <rect x="604" y="164" width="256" height="10" rx="3" fill="#30363d"/>
  <rect x="604" y="164" width="13" height="10" rx="3" fill="#f1e05a"/>
  <text x="604" y="193" class="lang-name">Shell</text>
  <text x="860" y="193" class="lang-pct" text-anchor="end">3.7%</text>
  <rect x="604" y="198" width="256" height="10" rx="3" fill="#30363d"/>
  <rect x="604" y="198" width="9" height="10" rx="3" fill="#89e051"/>
  <text x="604" y="227" class="lang-name">m4</text>
  <text x="860" y="227" class="lang-pct" text-anchor="end">1.7%</text>
  <rect x="604" y="232" width="256" height="10" rx="3" fill="#30363d"/>
  <rect x="604" y="232" width="4" height="10" rx="3" fill="#8b949e"/>
</svg>